<svg width="176" height="76" viewBox="0 0 276 76" fill="none" xmlns="http://www.w3.org/2000/svg">
	<path d="M23.87 52.24H23.62L13.76 24.17L6.76001 3.92C7.09456 3.50719 7.46246 3.12256 7.86001 2.77C9.03307 1.76334 10.3986 1.00577 11.8736 0.543332C13.3486 0.0808949 14.9022 -0.0767429 16.44 0.0800019L26.44 28.49L33.44 48.49C32.2355 49.8023 30.7473 50.8223 29.0889 51.4722C27.4304 52.1221 25.6454 52.3847 23.87 52.24Z" fill="#4AC1BF"/>
	<path d="M5.04 52.36C3.55566 52.1988 2.19577 51.4557 1.2585 50.2935C0.321219 49.1312 -0.116968 47.6448 0.0400021 46.16V46.08L4.04 10.2C4.31187 7.70323 5.39363 5.36411 7.12 3.54L8.12 2.54C9.29928 1.59545 10.6543 0.8943 12.1065 0.477178C13.5587 0.060056 15.0792 -0.0647472 16.58 0.109999L11.32 47.37C11.1358 48.8597 10.4053 50.2281 9.27 51.21C8.68083 51.6804 8.00156 52.0251 7.27405 52.2229C6.54655 52.4207 5.78623 52.4673 5.04 52.36Z" fill="white"/>
	<path d="M48.48 52.11L37.59 31.99L30.15 18.28L30.79 17.64C31.9271 16.6144 33.2699 15.843 34.7288 15.3775C36.1876 14.9119 37.729 14.7627 39.25 14.94L39.51 15.2L50.27 35.32L57.7 48.9L57.06 49.42C55.9035 50.4529 54.5399 51.2271 53.0603 51.691C51.5807 52.1548 50.0192 52.2977 48.48 52.11Z" fill="#4AC1BF"/>
	<path d="M48.35 52.11L50.66 31.73C50.7453 30.9759 50.9824 30.2469 51.3571 29.5869C51.7317 28.927 52.2362 28.3497 52.84 27.89C53.4014 27.4159 54.0576 27.0671 54.7647 26.867C55.4718 26.667 56.2134 26.6203 56.94 26.73C58.4295 26.8598 59.8069 27.5746 60.7703 28.718C61.7338 29.8614 62.2047 31.34 62.08 32.83C62.0849 32.8899 62.0849 32.9501 62.08 33.01L61.08 42.11C60.7396 44.8715 59.4196 47.4192 57.36 49.29C57.23 49.42 56.98 49.54 56.85 49.8C55.6575 50.7301 54.2917 51.4133 52.8323 51.8099C51.373 52.2065 49.8492 52.3085 48.35 52.11Z" fill="white"/>
	<path d="M23.62 52.11L26.69 24.56C27.0717 21.9488 28.3392 19.5481 30.28 17.76C30.4349 17.5274 30.6587 17.3491 30.92 17.25C33.2349 15.4075 36.175 14.5362 39.12 14.82H39.25L36.3 42.49C35.9597 44.9152 34.836 47.1627 33.1 48.89C31.8873 50.1384 30.3956 51.0813 28.7476 51.6411C27.0995 52.2008 25.3422 52.3615 23.62 52.11Z" fill="white"/>
	<path d="M97.488 49.75V32.376L90.314 45.534H88.206L80.998 32.376V49.75H77.19V25.61H81.27L89.26 40.366L97.25 25.61H101.33V49.75H97.488ZM114.124 50.09C112.741 50.09 111.483 49.852 110.35 49.376C109.216 48.8773 108.242 48.2087 107.426 47.37C106.632 46.5313 106.009 45.5567 105.556 44.446C105.125 43.3353 104.91 42.1567 104.91 40.91C104.91 39.6633 105.125 38.4847 105.556 37.374C106.009 36.2407 106.632 35.2547 107.426 34.416C108.242 33.5547 109.216 32.886 110.35 32.41C111.483 31.9113 112.752 31.662 114.158 31.662C115.54 31.662 116.787 31.9113 117.898 32.41C119.031 32.9087 119.994 33.5773 120.788 34.416C121.581 35.232 122.182 36.1953 122.59 37.306C123.02 38.394 123.236 39.5387 123.236 40.74C123.236 41.012 123.224 41.2727 123.202 41.522C123.179 41.7487 123.156 41.9413 123.134 42.1H108.888C108.956 42.8933 109.137 43.6073 109.432 44.242C109.749 44.8767 110.146 45.432 110.622 45.908C111.12 46.3613 111.676 46.7127 112.288 46.962C112.922 47.2113 113.58 47.336 114.26 47.336C114.758 47.336 115.246 47.2793 115.722 47.166C116.22 47.03 116.674 46.8487 117.082 46.622C117.49 46.3727 117.852 46.078 118.17 45.738C118.487 45.398 118.736 45.024 118.918 44.616L122.114 45.534C121.502 46.8713 120.482 47.9707 119.054 48.832C117.648 49.6707 116.005 50.09 114.124 50.09ZM119.53 39.516C119.462 38.768 119.269 38.0767 118.952 37.442C118.657 36.8073 118.272 36.2747 117.796 35.844C117.32 35.3907 116.764 35.0393 116.13 34.79C115.495 34.5407 114.826 34.416 114.124 34.416C113.421 34.416 112.752 34.5407 112.118 34.79C111.506 35.0393 110.962 35.3907 110.486 35.844C110.01 36.2747 109.624 36.8073 109.33 37.442C109.035 38.0767 108.854 38.768 108.786 39.516H119.53ZM136.047 48.832C135.571 49.0587 134.914 49.3193 134.075 49.614C133.237 49.886 132.341 50.022 131.389 50.022C130.8 50.022 130.245 49.9427 129.723 49.784C129.202 49.6253 128.737 49.3873 128.329 49.07C127.944 48.7527 127.638 48.3447 127.411 47.846C127.185 47.3247 127.071 46.7013 127.071 45.976V34.858H124.725V31.968H127.071V26.12H130.811V31.968H134.687V34.858H130.811V44.786C130.857 45.4207 131.049 45.8853 131.389 46.18C131.752 46.452 132.194 46.588 132.715 46.588C133.237 46.588 133.735 46.4973 134.211 46.316C134.687 46.1347 135.039 45.9873 135.265 45.874L136.047 48.832ZM148.634 35.198C147.183 35.2433 145.891 35.5833 144.758 36.218C143.647 36.83 142.854 37.714 142.378 38.87V49.75H138.638V31.968H142.106V35.946C142.718 34.722 143.511 33.7473 144.486 33.022C145.483 32.274 146.548 31.866 147.682 31.798C147.908 31.798 148.09 31.798 148.226 31.798C148.384 31.798 148.52 31.8093 148.634 31.832V35.198ZM151.355 49.75V31.968H155.095V49.75H151.355ZM151.355 29.044V24.93H155.095V29.044H151.355ZM158.433 40.842C158.433 39.5953 158.648 38.4167 159.079 37.306C159.51 36.1953 160.122 35.2207 160.915 34.382C161.731 33.5433 162.706 32.886 163.839 32.41C164.972 31.9113 166.242 31.662 167.647 31.662C169.483 31.662 171.058 32.07 172.373 32.886C173.71 33.6793 174.708 34.7447 175.365 36.082L171.727 37.238C171.296 36.49 170.718 35.912 169.993 35.504C169.268 35.0733 168.463 34.858 167.579 34.858C166.831 34.858 166.128 35.0053 165.471 35.3C164.836 35.5947 164.281 36.014 163.805 36.558C163.329 37.0793 162.955 37.7027 162.683 38.428C162.411 39.1533 162.275 39.958 162.275 40.842C162.275 41.7033 162.411 42.508 162.683 43.256C162.978 43.9813 163.363 44.616 163.839 45.16C164.338 45.704 164.904 46.1347 165.539 46.452C166.196 46.7467 166.888 46.894 167.613 46.894C168.066 46.894 168.52 46.8373 168.973 46.724C169.426 46.588 169.834 46.4067 170.197 46.18C170.582 45.9533 170.911 45.6927 171.183 45.398C171.478 45.1033 171.693 44.786 171.829 44.446L175.501 45.534C174.912 46.8713 173.926 47.9707 172.543 48.832C171.16 49.6707 169.528 50.09 167.647 50.09C166.264 50.09 165.006 49.8407 163.873 49.342C162.74 48.8433 161.765 48.1747 160.949 47.336C160.156 46.4747 159.532 45.4887 159.079 44.378C158.648 43.2673 158.433 42.0887 158.433 40.842ZM193.138 31.288C192.911 31.0387 192.583 30.778 192.152 30.506C191.721 30.2113 191.211 29.9393 190.622 29.69C190.055 29.4407 189.421 29.2367 188.718 29.078C188.038 28.9193 187.335 28.84 186.61 28.84C185.001 28.84 183.811 29.1347 183.04 29.724C182.292 30.3133 181.918 31.1293 181.918 32.172C181.918 32.7613 182.031 33.2487 182.258 33.634C182.507 33.9967 182.881 34.3253 183.38 34.62C183.879 34.892 184.502 35.1413 185.25 35.368C185.998 35.572 186.871 35.7987 187.868 36.048C189.092 36.3427 190.191 36.6713 191.166 37.034C192.163 37.3967 193.002 37.8387 193.682 38.36C194.362 38.8813 194.883 39.5273 195.246 40.298C195.631 41.046 195.824 41.964 195.824 43.052C195.824 44.276 195.586 45.33 195.11 46.214C194.657 47.098 194.022 47.8233 193.206 48.39C192.413 48.934 191.483 49.342 190.418 49.614C189.353 49.8633 188.208 49.988 186.984 49.988C185.148 49.988 183.369 49.716 181.646 49.172C179.946 48.6053 178.405 47.7893 177.022 46.724L178.756 43.46C179.051 43.7547 179.47 44.0833 180.014 44.446C180.581 44.8087 181.227 45.1487 181.952 45.466C182.7 45.7607 183.505 46.0213 184.366 46.248C185.227 46.452 186.123 46.554 187.052 46.554C188.548 46.554 189.704 46.2933 190.52 45.772C191.336 45.2507 191.744 44.48 191.744 43.46C191.744 42.848 191.585 42.338 191.268 41.93C190.973 41.522 190.543 41.1707 189.976 40.876C189.409 40.5587 188.718 40.2753 187.902 40.026C187.086 39.7767 186.157 39.516 185.114 39.244C183.913 38.9267 182.859 38.598 181.952 38.258C181.068 37.8953 180.331 37.4647 179.742 36.966C179.153 36.4673 178.699 35.8893 178.382 35.232C178.087 34.552 177.94 33.736 177.94 32.784C177.94 31.6053 178.167 30.5627 178.62 29.656C179.073 28.7267 179.685 27.956 180.456 27.344C181.249 26.7093 182.179 26.2333 183.244 25.916C184.309 25.5987 185.465 25.44 186.712 25.44C188.344 25.44 189.851 25.7007 191.234 26.222C192.617 26.7433 193.829 27.3893 194.872 28.16L193.138 31.288ZM207.225 50.09C205.842 50.09 204.584 49.852 203.451 49.376C202.318 48.8773 201.343 48.2087 200.527 47.37C199.734 46.5313 199.11 45.5567 198.657 44.446C198.226 43.3353 198.011 42.1567 198.011 40.91C198.011 39.6633 198.226 38.4847 198.657 37.374C199.11 36.2407 199.734 35.2547 200.527 34.416C201.343 33.5547 202.318 32.886 203.451 32.41C204.584 31.9113 205.854 31.662 207.259 31.662C208.642 31.662 209.888 31.9113 210.999 32.41C212.132 32.9087 213.096 33.5773 213.889 34.416C214.682 35.232 215.283 36.1953 215.691 37.306C216.122 38.394 216.337 39.5387 216.337 40.74C216.337 41.012 216.326 41.2727 216.303 41.522C216.28 41.7487 216.258 41.9413 216.235 42.1H201.989C202.057 42.8933 202.238 43.6073 202.533 44.242C202.85 44.8767 203.247 45.432 203.723 45.908C204.222 46.3613 204.777 46.7127 205.389 46.962C206.024 47.2113 206.681 47.336 207.361 47.336C207.86 47.336 208.347 47.2793 208.823 47.166C209.322 47.03 209.775 46.8487 210.183 46.622C210.591 46.3727 210.954 46.078 211.271 45.738C211.588 45.398 211.838 45.024 212.019 44.616L215.215 45.534C214.603 46.8713 213.583 47.9707 212.155 48.832C210.75 49.6707 209.106 50.09 207.225 50.09ZM212.631 39.516C212.563 38.768 212.37 38.0767 212.053 37.442C211.758 36.8073 211.373 36.2747 210.897 35.844C210.421 35.3907 209.866 35.0393 209.231 34.79C208.596 34.5407 207.928 34.416 207.225 34.416C206.522 34.416 205.854 34.5407 205.219 34.79C204.607 35.0393 204.063 35.3907 203.587 35.844C203.111 36.2747 202.726 36.8073 202.431 37.442C202.136 38.0767 201.955 38.768 201.887 39.516H212.631ZM235.334 49.75H231.594V39.788C231.594 38.1107 231.322 36.898 230.778 36.15C230.256 35.3793 229.474 34.994 228.432 34.994C227.888 34.994 227.344 35.096 226.8 35.3C226.256 35.504 225.746 35.7987 225.27 36.184C224.794 36.5467 224.363 36.9887 223.978 37.51C223.615 38.0087 223.332 38.564 223.128 39.176V49.75H219.388V31.968H222.788V35.538C223.468 34.3367 224.454 33.396 225.746 32.716C227.038 32.0133 228.466 31.662 230.03 31.662C231.095 31.662 231.968 31.8547 232.648 32.24C233.328 32.6253 233.86 33.158 234.246 33.838C234.654 34.4953 234.937 35.266 235.096 36.15C235.254 37.0113 235.334 37.9293 235.334 38.904V49.75ZM246.135 50.09C244.707 50.09 243.279 49.8633 241.851 49.41C240.446 48.934 239.233 48.2653 238.213 47.404L239.709 45.024C240.774 45.7947 241.828 46.384 242.871 46.792C243.914 47.1773 244.979 47.37 246.067 47.37C247.178 47.37 248.05 47.1547 248.685 46.724C249.342 46.2933 249.671 45.6813 249.671 44.888C249.671 44.14 249.308 43.596 248.583 43.256C247.858 42.916 246.724 42.542 245.183 42.134C244.072 41.8393 243.12 41.556 242.327 41.284C241.534 41.012 240.888 40.6947 240.389 40.332C239.89 39.9693 239.528 39.55 239.301 39.074C239.074 38.598 238.961 38.02 238.961 37.34C238.961 36.4333 239.131 35.6287 239.471 34.926C239.834 34.2233 240.321 33.634 240.933 33.158C241.568 32.6593 242.304 32.2853 243.143 32.036C243.982 31.7867 244.888 31.662 245.863 31.662C247.2 31.662 248.447 31.866 249.603 32.274C250.759 32.682 251.79 33.2713 252.697 34.042L251.099 36.286C249.444 34.9713 247.688 34.314 245.829 34.314C244.877 34.314 244.072 34.518 243.415 34.926C242.78 35.3113 242.463 35.9347 242.463 36.796C242.463 37.1587 242.531 37.4647 242.667 37.714C242.803 37.9633 243.018 38.1787 243.313 38.36C243.63 38.5413 244.027 38.7113 244.503 38.87C245.002 39.006 245.614 39.1647 246.339 39.346C247.54 39.6407 248.572 39.9353 249.433 40.23C250.317 40.5247 251.042 40.876 251.609 41.284C252.176 41.6693 252.595 42.134 252.867 42.678C253.139 43.1993 253.275 43.834 253.275 44.582C253.275 46.282 252.629 47.6307 251.337 48.628C250.068 49.6027 248.334 50.09 246.135 50.09ZM264.6 50.09C263.217 50.09 261.959 49.852 260.826 49.376C259.693 48.8773 258.718 48.2087 257.902 47.37C257.109 46.5313 256.485 45.5567 256.032 44.446C255.601 43.3353 255.386 42.1567 255.386 40.91C255.386 39.6633 255.601 38.4847 256.032 37.374C256.485 36.2407 257.109 35.2547 257.902 34.416C258.718 33.5547 259.693 32.886 260.826 32.41C261.959 31.9113 263.229 31.662 264.634 31.662C266.017 31.662 267.263 31.9113 268.374 32.41C269.507 32.9087 270.471 33.5773 271.264 34.416C272.057 35.232 272.658 36.1953 273.066 37.306C273.497 38.394 273.712 39.5387 273.712 40.74C273.712 41.012 273.701 41.2727 273.678 41.522C273.655 41.7487 273.633 41.9413 273.61 42.1H259.364C259.432 42.8933 259.613 43.6073 259.908 44.242C260.225 44.8767 260.622 45.432 261.098 45.908C261.597 46.3613 262.152 46.7127 262.764 46.962C263.399 47.2113 264.056 47.336 264.736 47.336C265.235 47.336 265.722 47.2793 266.198 47.166C266.697 47.03 267.15 46.8487 267.558 46.622C267.966 46.3727 268.329 46.078 268.646 45.738C268.963 45.398 269.213 45.024 269.394 44.616L272.59 45.534C271.978 46.8713 270.958 47.9707 269.53 48.832C268.125 49.6707 266.481 50.09 264.6 50.09ZM270.006 39.516C269.938 38.768 269.745 38.0767 269.428 37.442C269.133 36.8073 268.748 36.2747 268.272 35.844C267.796 35.3907 267.241 35.0393 266.606 34.79C265.971 34.5407 265.303 34.416 264.6 34.416C263.897 34.416 263.229 34.5407 262.594 34.79C261.982 35.0393 261.438 35.3907 260.962 35.844C260.486 36.2747 260.101 36.8073 259.806 37.442C259.511 38.0767 259.33 38.768 259.262 39.516H270.006Z" fill="white"/>
	<path d="M147.323 71.6V63.79H150.535C150.865 63.79 151.169 63.8597 151.448 63.999C151.727 64.1383 151.965 64.3253 152.163 64.56C152.368 64.7873 152.526 65.0477 152.636 65.341C152.753 65.627 152.812 65.9167 152.812 66.21C152.812 66.5253 152.757 66.8297 152.647 67.123C152.544 67.4163 152.394 67.6767 152.196 67.904C152.005 68.1313 151.774 68.3147 151.503 68.454C151.232 68.586 150.931 68.652 150.601 68.652H147.884V71.6H147.323ZM147.884 68.135H150.579C150.836 68.135 151.067 68.0837 151.272 67.981C151.477 67.871 151.65 67.728 151.789 67.552C151.936 67.3687 152.046 67.1633 152.119 66.936C152.2 66.7013 152.24 66.4593 152.24 66.21C152.24 65.9533 152.192 65.7113 152.097 65.484C152.009 65.2493 151.884 65.044 151.723 64.868C151.569 64.692 151.386 64.5527 151.173 64.45C150.968 64.3473 150.748 64.296 150.513 64.296H147.884V68.135ZM156.291 71.71C155.888 71.71 155.514 71.633 155.169 71.479C154.832 71.3177 154.539 71.1013 154.289 70.83C154.04 70.5587 153.846 70.2433 153.706 69.884C153.567 69.5247 153.497 69.147 153.497 68.751C153.497 68.3477 153.567 67.9663 153.706 67.607C153.853 67.2477 154.051 66.9323 154.3 66.661C154.55 66.3897 154.843 66.177 155.18 66.023C155.525 65.8617 155.895 65.781 156.291 65.781C156.687 65.781 157.054 65.8617 157.391 66.023C157.729 66.177 158.022 66.3897 158.271 66.661C158.528 66.9323 158.726 67.2477 158.865 67.607C159.012 67.9663 159.085 68.3477 159.085 68.751C159.085 69.147 159.012 69.5247 158.865 69.884C158.726 70.2433 158.532 70.5587 158.282 70.83C158.033 71.1013 157.736 71.3177 157.391 71.479C157.054 71.633 156.687 71.71 156.291 71.71ZM154.047 68.773C154.047 69.1103 154.106 69.4293 154.223 69.73C154.341 70.0233 154.498 70.28 154.696 70.5C154.902 70.72 155.14 70.896 155.411 71.028C155.683 71.1527 155.972 71.215 156.28 71.215C156.588 71.215 156.878 71.1527 157.149 71.028C157.421 70.896 157.659 70.7163 157.864 70.489C158.07 70.2617 158.231 70.0013 158.348 69.708C158.466 69.4073 158.524 69.0847 158.524 68.74C158.524 68.4027 158.466 68.0873 158.348 67.794C158.231 67.4933 158.07 67.233 157.864 67.013C157.659 66.7857 157.421 66.606 157.149 66.474C156.885 66.342 156.599 66.276 156.291 66.276C155.983 66.276 155.694 66.342 155.422 66.474C155.151 66.606 154.913 66.7857 154.707 67.013C154.509 67.2403 154.348 67.508 154.223 67.816C154.106 68.1167 154.047 68.4357 154.047 68.773ZM167.448 65.88H167.998L165.523 71.6H165.061L163.774 68.575L162.487 71.6H162.025L159.55 65.88H160.089L162.278 70.995L163.477 68.179L162.509 65.891H162.982L163.774 67.783L164.555 65.891H165.039L164.071 68.179L165.27 70.995L167.448 65.88ZM171.288 71.71C170.885 71.71 170.511 71.633 170.166 71.479C169.822 71.3177 169.521 71.1013 169.264 70.83C169.015 70.5513 168.817 70.2323 168.67 69.873C168.531 69.5137 168.461 69.1287 168.461 68.718C168.461 68.3147 168.531 67.937 168.67 67.585C168.817 67.2257 169.015 66.914 169.264 66.65C169.514 66.3787 169.807 66.166 170.144 66.012C170.489 65.858 170.859 65.781 171.255 65.781C171.659 65.781 172.033 65.8617 172.377 66.023C172.722 66.177 173.019 66.3897 173.268 66.661C173.518 66.925 173.712 67.2367 173.851 67.596C173.991 67.948 174.06 68.322 174.06 68.718C174.06 68.7547 174.06 68.8023 174.06 68.861C174.06 68.9123 174.057 68.9453 174.049 68.96H169.033C169.055 69.29 169.132 69.598 169.264 69.884C169.396 70.1627 169.561 70.4047 169.759 70.61C169.965 70.8153 170.199 70.9767 170.463 71.094C170.727 71.2113 171.01 71.27 171.31 71.27C171.508 71.27 171.703 71.2443 171.893 71.193C172.084 71.1343 172.26 71.0573 172.421 70.962C172.59 70.8667 172.737 70.753 172.861 70.621C172.993 70.4817 173.096 70.3313 173.169 70.17L173.653 70.302C173.573 70.5073 173.452 70.698 173.29 70.874C173.136 71.0427 172.953 71.1893 172.74 71.314C172.535 71.4387 172.308 71.534 172.058 71.6C171.809 71.6733 171.552 71.71 171.288 71.71ZM173.532 68.52C173.51 68.1827 173.433 67.8747 173.301 67.596C173.177 67.3173 173.012 67.079 172.806 66.881C172.608 66.6757 172.377 66.518 172.113 66.408C171.849 66.2907 171.567 66.232 171.266 66.232C170.966 66.232 170.683 66.2907 170.419 66.408C170.155 66.518 169.921 66.6757 169.715 66.881C169.517 67.079 169.356 67.321 169.231 67.607C169.114 67.8857 169.044 68.19 169.022 68.52H173.532ZM177.976 66.375C177.463 66.3897 177.012 66.5437 176.623 66.837C176.242 67.123 175.974 67.519 175.82 68.025V71.6H175.27V65.88H175.798V67.288C175.996 66.8847 176.257 66.5583 176.579 66.309C176.909 66.0523 177.261 65.9057 177.635 65.869C177.709 65.8617 177.775 65.858 177.833 65.858C177.892 65.858 177.94 65.858 177.976 65.858V66.375ZM181.16 71.71C180.757 71.71 180.383 71.633 180.038 71.479C179.694 71.3177 179.393 71.1013 179.136 70.83C178.887 70.5513 178.689 70.2323 178.542 69.873C178.403 69.5137 178.333 69.1287 178.333 68.718C178.333 68.3147 178.403 67.937 178.542 67.585C178.689 67.2257 178.887 66.914 179.136 66.65C179.386 66.3787 179.679 66.166 180.016 66.012C180.361 65.858 180.731 65.781 181.127 65.781C181.531 65.781 181.905 65.8617 182.249 66.023C182.594 66.177 182.891 66.3897 183.14 66.661C183.39 66.925 183.584 67.2367 183.723 67.596C183.863 67.948 183.932 68.322 183.932 68.718C183.932 68.7547 183.932 68.8023 183.932 68.861C183.932 68.9123 183.929 68.9453 183.921 68.96H178.905C178.927 69.29 179.004 69.598 179.136 69.884C179.268 70.1627 179.433 70.4047 179.631 70.61C179.837 70.8153 180.071 70.9767 180.335 71.094C180.599 71.2113 180.882 71.27 181.182 71.27C181.38 71.27 181.575 71.2443 181.765 71.193C181.956 71.1343 182.132 71.0573 182.293 70.962C182.462 70.8667 182.609 70.753 182.733 70.621C182.865 70.4817 182.968 70.3313 183.041 70.17L183.525 70.302C183.445 70.5073 183.324 70.698 183.162 70.874C183.008 71.0427 182.825 71.1893 182.612 71.314C182.407 71.4387 182.18 71.534 181.93 71.6C181.681 71.6733 181.424 71.71 181.16 71.71ZM183.404 68.52C183.382 68.1827 183.305 67.8747 183.173 67.596C183.049 67.3173 182.884 67.079 182.678 66.881C182.48 66.6757 182.249 66.518 181.985 66.408C181.721 66.2907 181.439 66.232 181.138 66.232C180.838 66.232 180.555 66.2907 180.291 66.408C180.027 66.518 179.793 66.6757 179.587 66.881C179.389 67.079 179.228 67.321 179.103 67.607C178.986 67.8857 178.916 68.19 178.894 68.52H183.404ZM187.496 71.71C187.1 71.71 186.734 71.6293 186.396 71.468C186.059 71.2993 185.766 71.0793 185.516 70.808C185.274 70.5293 185.084 70.214 184.944 69.862C184.812 69.5027 184.746 69.1323 184.746 68.751C184.746 68.355 184.812 67.9773 184.944 67.618C185.076 67.2587 185.26 66.9433 185.494 66.672C185.729 66.4007 186.004 66.1843 186.319 66.023C186.642 65.8617 186.994 65.781 187.375 65.781C187.625 65.781 187.859 65.8177 188.079 65.891C188.299 65.9643 188.505 66.0633 188.695 66.188C188.886 66.3053 189.058 66.4447 189.212 66.606C189.366 66.7673 189.498 66.9397 189.608 67.123V63.57H190.158V70.83C190.158 71.0133 190.235 71.105 190.389 71.105V71.6C190.345 71.6073 190.309 71.611 190.279 71.611C190.25 71.6183 190.221 71.622 190.191 71.622C190.045 71.622 189.92 71.567 189.817 71.457C189.715 71.3397 189.663 71.2187 189.663 71.094V70.456C189.429 70.8373 189.113 71.1417 188.717 71.369C188.329 71.5963 187.922 71.71 187.496 71.71ZM187.595 71.215C187.793 71.215 188.006 71.1747 188.233 71.094C188.461 71.0133 188.67 70.9033 188.86 70.764C189.058 70.6173 189.227 70.4523 189.366 70.269C189.506 70.0857 189.586 69.8877 189.608 69.675V67.794C189.528 67.5887 189.41 67.3943 189.256 67.211C189.11 67.0203 188.941 66.859 188.75 66.727C188.56 66.5877 188.354 66.4777 188.134 66.397C187.914 66.3163 187.702 66.276 187.496 66.276C187.166 66.276 186.866 66.3493 186.594 66.496C186.323 66.6353 186.092 66.8223 185.901 67.057C185.711 67.2843 185.564 67.5483 185.461 67.849C185.359 68.1423 185.307 68.4467 185.307 68.762C185.307 69.092 185.366 69.4037 185.483 69.697C185.601 69.9903 185.762 70.2507 185.967 70.478C186.18 70.7053 186.422 70.885 186.693 71.017C186.972 71.149 187.273 71.215 187.595 71.215ZM197.408 71.71C196.961 71.71 196.543 71.5927 196.154 71.358C195.765 71.1233 195.461 70.8227 195.241 70.456V71.6H194.735V63.57H195.285V67.123C195.556 66.727 195.875 66.4043 196.242 66.155C196.616 65.9057 197.045 65.781 197.529 65.781C197.932 65.781 198.295 65.869 198.618 66.045C198.948 66.2137 199.223 66.441 199.443 66.727C199.67 67.0057 199.843 67.3247 199.96 67.684C200.085 68.036 200.147 68.3953 200.147 68.762C200.147 69.158 200.077 69.5357 199.938 69.895C199.799 70.247 199.604 70.5587 199.355 70.83C199.113 71.094 198.823 71.3067 198.486 71.468C198.156 71.6293 197.797 71.71 197.408 71.71ZM197.298 71.215C197.635 71.215 197.943 71.1453 198.222 71.006C198.501 70.8667 198.739 70.6833 198.937 70.456C199.142 70.2213 199.3 69.9573 199.41 69.664C199.527 69.3707 199.586 69.07 199.586 68.762C199.586 68.4393 199.531 68.1313 199.421 67.838C199.318 67.5373 199.168 67.2733 198.97 67.046C198.779 66.8113 198.548 66.6243 198.277 66.485C198.013 66.3457 197.72 66.276 197.397 66.276C197.155 66.276 196.928 66.32 196.715 66.408C196.502 66.4887 196.304 66.5987 196.121 66.738C195.945 66.8773 195.784 67.0387 195.637 67.222C195.498 67.4053 195.38 67.596 195.285 67.794V69.686C195.307 69.8987 195.388 70.1003 195.527 70.291C195.666 70.4743 195.831 70.6357 196.022 70.775C196.22 70.907 196.433 71.0133 196.66 71.094C196.887 71.1747 197.1 71.215 197.298 71.215ZM201.662 73.536C201.699 73.5433 201.754 73.547 201.827 73.547C201.9 73.547 201.966 73.5433 202.025 73.536C202.091 73.5287 202.153 73.5103 202.212 73.481C202.256 73.459 202.296 73.426 202.333 73.382C202.37 73.3453 202.421 73.2647 202.487 73.14C202.553 73.0153 202.637 72.832 202.74 72.59C202.843 72.348 202.982 72.018 203.158 71.6L200.606 65.88H201.178L203.455 71.061L205.578 65.88H206.117L202.982 73.404C202.901 73.6093 202.769 73.767 202.586 73.877C202.41 73.9943 202.168 74.053 201.86 74.053C201.831 74.053 201.798 74.053 201.761 74.053C201.732 74.053 201.699 74.0493 201.662 74.042V73.536Z" fill="white"/>
	<path d="M214.31 71.56H211.31L210.92 72.81H208.92L211.62 64.86H213.94L216.64 72.81H214.64L214.31 71.56ZM213.76 69.86L212.83 66.93L211.9 69.86H213.76Z" fill="white"/>
	<path d="M220.15 70.19H219.28V72.8H217.47V64.8H220.65C221.008 64.8 221.363 64.8707 221.693 65.008C222.024 65.1453 222.324 65.3466 222.577 65.6002C222.83 65.8538 223.03 66.1549 223.166 66.486C223.302 66.8172 223.371 67.172 223.37 67.53C223.361 68.0129 223.219 68.4839 222.959 68.8914C222.7 69.2989 222.334 69.6271 221.9 69.84L223.6 72.76H221.6L220.15 70.19ZM219.28 68.6H220.65C220.915 68.6 221.17 68.4946 221.357 68.3071C221.545 68.1196 221.65 67.8652 221.65 67.6C221.65 67.3348 221.545 67.0804 221.357 66.8929C221.17 66.7054 220.915 66.6 220.65 66.6H219.28V68.6Z" fill="white"/>
	<path d="M224.21 68.83C224.19 68.2811 224.284 67.734 224.485 67.2228C224.686 66.7117 224.991 66.2474 225.379 65.859C225.767 65.4706 226.232 65.1664 226.743 64.9652C227.254 64.7641 227.801 64.6704 228.35 64.69C229.024 64.6784 229.69 64.8373 230.286 65.152C230.882 65.4667 231.389 65.9269 231.76 66.49L230.19 67.4C230.006 67.0811 229.739 66.819 229.416 66.6426C229.093 66.4662 228.727 66.3822 228.36 66.4C227.759 66.4391 227.196 66.7052 226.784 67.1445C226.373 67.5837 226.144 68.1631 226.144 68.765C226.144 69.3669 226.373 69.9463 226.784 70.3855C227.196 70.8248 227.759 71.0909 228.36 71.13C228.727 71.1478 229.093 71.0638 229.416 70.8874C229.739 70.711 230.006 70.4489 230.19 70.13L231.76 71.03C231.395 71.599 230.892 72.0663 230.297 72.388C229.702 72.7098 229.036 72.8756 228.36 72.87C227.819 72.8903 227.279 72.8006 226.774 72.6062C226.268 72.4117 225.808 72.1167 225.42 71.739C225.032 71.3612 224.724 70.9086 224.516 70.4086C224.308 69.9086 224.204 69.3715 224.21 68.83Z" fill="white"/>
	<path d="M238.96 64.85V72.85H237.15V69.64H234.65V72.8H232.84V64.8H234.65V67.8H237.15V64.8L238.96 64.85Z" fill="white"/>
	<path d="M249.76 66.61H247.44V72.81H245.62V66.61H243.31V64.85H249.76V66.61Z" fill="white"/>
	<path d="M256.31 71.06V72.8H251.04V64.8H256.25V66.55H252.85V67.87H255.7V69.59H252.85V71.01L256.31 71.06Z" fill="white"/>
	<path d="M257.09 68.83C257.07 68.2819 257.164 67.7357 257.364 67.2253C257.565 66.7148 257.868 66.2511 258.256 65.8628C258.643 65.4745 259.106 65.1701 259.616 64.9683C260.126 64.7666 260.672 64.6718 261.22 64.69C261.896 64.6844 262.562 64.8502 263.157 65.172C263.752 65.4937 264.255 65.961 264.62 66.53L263.05 67.44C262.866 67.1211 262.599 66.859 262.276 66.6826C261.953 66.5062 261.587 66.4222 261.22 66.44C260.619 66.4791 260.056 66.7452 259.644 67.1845C259.233 67.6237 259.004 68.2031 259.004 68.805C259.004 69.4069 259.233 69.9863 259.644 70.4255C260.056 70.8648 260.619 71.1309 261.22 71.17C261.587 71.1878 261.953 71.1038 262.276 70.9274C262.599 70.751 262.866 70.4889 263.05 70.17L264.62 71.07C264.255 71.639 263.752 72.1063 263.157 72.428C262.562 72.7498 261.896 72.9156 261.22 72.91C260.677 72.9278 260.136 72.8348 259.63 72.6367C259.125 72.4386 258.664 72.1395 258.278 71.7577C257.892 71.376 257.587 70.9195 257.383 70.4161C257.178 69.9128 257.079 69.3731 257.09 68.83Z" fill="white"/>
	<path d="M242.1 64.85H240.34V72.8H242.1V64.85Z" fill="white"/>
	<path d="M267.53 64.85V68.22L270.02 67.85V64.85H271.85V72.81H270.02V69.44L267.53 69.81V72.81H265.71V64.85H267.53Z" fill="white"/>
</svg>
