<svg width="200" height="200" viewBox="0 0 200 200" fill="none" xmlns="http://www.w3.org/2000/svg">
<rect width="200" height="200" fill="black"/>
<path d="M66.9825 74.1166C65.4857 69.9705 67.6247 65.3949 71.7658 63.8844L79.3515 61.1176L103.597 126.86L89.7667 137.228L66.9825 74.1166Z" fill="#4AC1BF"/>
<path d="M107.549 102.833C106.433 100.766 106.283 98.3118 107.138 96.1232L112.466 82.4821L140.682 128.897L126.111 137.229L107.549 102.833Z" fill="#4AC1BF"/>
<path d="M61.177 75.513C62.2599 66.1916 70.3547 60.0642 79.3515 61.1175L71.3164 130.64C70.7977 135.129 66.7397 138.348 62.2508 137.832C57.76 137.315 54.538 133.256 55.0543 128.766L61.177 75.513Z" fill="white"/>
<path d="M94.4 96.8978C95.4291 87.9397 103.503 81.497 112.466 82.482V82.482L107.875 122.798C106.853 131.78 98.7499 138.237 89.7667 137.228V137.228L94.4 96.8978Z" fill="white"/>
<path d="M129.59 106.705C130.062 102.603 133.77 99.659 137.873 100.131L139.795 100.352C143.019 100.722 145.332 103.636 144.961 106.86L144.246 123.876C144.246 129.751 135.097 138.22 127.478 137.344L126.086 137.184L129.59 106.705Z" fill="white"/>
</svg>
