<svg width="16" height="16" viewBox="0 0 16 16" fill="none" xmlns="http://www.w3.org/2000/svg">
<path d="M13.7143 16C14.975 16 16 14.975 16 13.7143V2.28571C16 1.025 14.975 0 13.7143 0H2.28571C1.025 0 0 1.025 0 2.28571V13.7143C0 14.975 1.025 16 2.28571 16H13.7143ZM11.4286 12.5714C10.7964 12.5714 10.2857 12.0607 10.2857 11.4286V4.57143C10.2857 3.93929 10.7964 3.42857 11.4286 3.42857C12.0607 3.42857 12.5714 3.93929 12.5714 4.57143V11.4286C12.5714 12.0607 12.0607 12.5714 11.4286 12.5714ZM9.14286 6.85714C9.14286 7.48929 8.63214 8 8 8C7.36786 8 6.85714 7.48929 6.85714 6.85714V4.57143C6.85714 3.93929 7.36786 3.42857 8 3.42857C8.63214 3.42857 9.14286 3.93929 9.14286 4.57143V6.85714ZM4.57143 10.2857C3.93929 10.2857 3.42857 9.775 3.42857 9.14286V4.57143C3.42857 3.93929 3.93929 3.42857 4.57143 3.42857C5.20357 3.42857 5.71429 3.93929 5.71429 4.57143V9.14286C5.71429 9.775 5.20357 10.2857 4.57143 10.2857Z" fill="black"/>
</svg>
