<!--
Licensed to the Apache Software Foundation (ASF) under one or more
contributor license agreements.  See the NOTICE file distributed with
this work for additional information regarding copyright ownership.
The ASF licenses this file to You under the Apache License, Version 2.0
(the "License"); you may not use this file except in compliance with
the License.  You may obtain a copy of the License at

    http://www.apache.org/licenses/LICENSE-2.0

Unless required by applicable law or agreed to in writing, software
distributed under the License is distributed on an "AS IS" BASIS,
WITHOUT WARRANTIES OR CONDITIONS OF ANY KIND, either express or implied.
See the License for the specific language governing permissions and
limitations under the License.
-->
<svg width="22" height="20" viewBox="0 0 22 20" fill="none" xmlns="http://www.w3.org/2000/svg">
  <path d="M21.1668 3.04151C21.7418 2.58316 21.8335 1.74148 21.3752 1.16647C20.9168 0.591462 20.0751 0.499793 19.5001 0.958135L13.6417 5.64572L9.13328 2.26649C8.64577 1.89982 7.97492 1.91232 7.49992 2.29149L0.833129 7.62492C0.258118 8.08326 0.16645 8.92495 0.624792 9.49996C1.08313 10.075 1.92482 10.1666 2.49983 9.70829L8.35826 5.02071L12.8667 8.39994C13.3542 8.76661 14.025 8.75411 14.5 8.37494L21.1668 3.04151ZM6.99991 9.99997V18.0001C6.99991 18.7376 7.59575 19.3335 8.33326 19.3335C9.07078 19.3335 9.66662 18.7376 9.66662 18.0001V9.99997C9.66662 9.26245 9.07078 8.66661 8.33326 8.66661C7.59575 8.66661 6.99991 9.26245 6.99991 9.99997ZM1.66648 14V18.0001C1.66648 18.7376 2.26232 19.3335 2.99983 19.3335C3.73735 19.3335 4.33319 18.7376 4.33319 18.0001V14C4.33319 13.2625 3.73735 12.6667 2.99983 12.6667C2.26232 12.6667 1.66648 13.2625 1.66648 14ZM13.6667 11.3333C12.9292 11.3333 12.3333 11.9292 12.3333 12.6667V18.0001C12.3333 18.7376 12.9292 19.3335 13.6667 19.3335C14.4042 19.3335 15.0001 18.7376 15.0001 18.0001V12.6667C15.0001 11.9292 14.4042 11.3333 13.6667 11.3333ZM17.6668 9.99997V18.0001C17.6668 18.7376 18.2626 19.3335 19.0001 19.3335C19.7376 19.3335 20.3335 18.7376 20.3335 18.0001V9.99997C20.3335 9.26245 19.7376 8.66661 19.0001 8.66661C18.2626 8.66661 17.6668 9.26245 17.6668 9.99997Z" fill="#4AC1BF"/>
</svg>
